# Blender v2.90.0 OBJ File: ''
# www.blender.org
mtllib BILGREJ.mtl
o Plane_Plane.001
v -1.000000 -0.287715 -0.000000
v 1.000000 -0.287715 -0.000000
v -1.000000 0.359087 0.000000
v 1.000000 0.359087 0.000000
v -0.916667 -0.241051 -0.108597
v -0.833333 -0.199823 -0.207750
v -0.750000 -0.164608 -0.297460
v -0.666667 -0.134775 -0.377727
v -0.583333 -0.109763 -0.448551
v -0.500000 -0.089077 -0.509932
v -0.416667 -0.072292 -0.561869
v -0.333333 -0.059048 -0.604364
v -0.250000 -0.049051 -0.637415
v -0.166667 -0.042073 -0.661023
v -0.083333 -0.037951 -0.675188
v -0.000000 -0.036588 -0.679909
v 0.083333 -0.037951 -0.675188
v 0.166667 -0.042073 -0.661023
v 0.250000 -0.049051 -0.637415
v 0.333333 -0.059048 -0.604364
v 0.416667 -0.072292 -0.561869
v 0.500000 -0.089077 -0.509932
v 0.583333 -0.109763 -0.448551
v 0.666667 -0.134775 -0.377727
v 0.750000 -0.164608 -0.297460
v 0.833333 -0.199823 -0.207750
v 0.916667 -0.241051 -0.108596
v 0.916667 0.405751 -0.108596
v 0.833333 0.446978 -0.207750
v 0.750000 0.482194 -0.297460
v 0.666667 0.512027 -0.377727
v 0.583333 0.537039 -0.448551
v 0.500000 0.557725 -0.509932
v 0.416667 0.574510 -0.561869
v 0.333333 0.587754 -0.604364
v 0.250000 0.597751 -0.637415
v 0.166667 0.604729 -0.661023
v 0.083333 0.608851 -0.675188
v 0.000000 0.610214 -0.679909
v -0.083333 0.608851 -0.675188
v -0.166667 0.604729 -0.661023
v -0.250000 0.597751 -0.637415
v -0.333333 0.587754 -0.604364
v -0.416667 0.574510 -0.561869
v -0.500000 0.557725 -0.509932
v -0.583333 0.537039 -0.448551
v -0.666667 0.512027 -0.377727
v -0.750000 0.482194 -0.297460
v -0.833333 0.446978 -0.207750
v -0.916667 0.405751 -0.108596
vt 0.958874 0.329017
vt 1.000535 0.329017
vt 1.000535 0.652381
vt 0.958874 0.652381
vt 0.000649 0.329017
vt 0.042311 0.329017
vt 0.042311 0.652381
vt 0.000649 0.652381
vt 0.083973 0.329017
vt 0.083973 0.652381
vt 0.125635 0.329017
vt 0.125635 0.652381
vt 0.167297 0.329017
vt 0.167297 0.652381
vt 0.208959 0.329017
vt 0.208959 0.652381
vt 0.250621 0.329017
vt 0.250621 0.652381
vt 0.292283 0.329017
vt 0.292283 0.652381
vt 0.333945 0.329017
vt 0.333945 0.652381
vt 0.375607 0.329017
vt 0.375607 0.652381
vt 0.417269 0.329017
vt 0.417269 0.652381
vt 0.458930 0.329017
vt 0.458930 0.652381
vt 0.500592 0.329017
vt 0.500592 0.652381
vt 0.542254 0.329017
vt 0.542254 0.652381
vt 0.583916 0.329017
vt 0.583916 0.652381
vt 0.625578 0.329017
vt 0.625578 0.652381
vt 0.667240 0.329017
vt 0.667240 0.652381
vt 0.708902 0.329017
vt 0.708902 0.652381
vt 0.750564 0.329017
vt 0.750564 0.652381
vt 0.792226 0.329017
vt 0.792226 0.652381
vt 0.833888 0.329017
vt 0.833888 0.652381
vt 0.875550 0.329017
vt 0.875550 0.652381
vt 0.917212 0.329017
vt 0.917212 0.652381
vn -0.7824 0.0000 0.6227
vn -0.7933 0.0000 0.6088
vn -0.7768 0.0000 0.6297
vn 0.7933 0.0000 0.6088
vn 0.7824 0.0000 0.6227
vn 0.7768 0.0000 0.6297
vn 0.7524 0.0000 0.6587
vn 0.7462 0.0000 0.6657
vn 0.7167 0.0000 0.6973
vn 0.7101 0.0000 0.7041
vn 0.6744 0.0000 0.7383
vn 0.6674 0.0000 0.7447
vn 0.6243 0.0000 0.7812
vn 0.6170 0.0000 0.7870
vn 0.5651 0.0000 0.8250
vn 0.5576 0.0000 0.8301
vn 0.4957 0.0000 0.8685
vn 0.4883 0.0000 0.8726
vn 0.4153 0.0000 0.9097
vn 0.4085 0.0000 0.9127
vn 0.3239 0.0000 0.9461
vn 0.3181 0.0000 0.9481
vn 0.2225 0.0000 0.9749
vn 0.2182 0.0000 0.9759
vn 0.1134 0.0000 0.9935
vn 0.1111 0.0000 0.9938
vn 0.0000 0.0000 1.0000
vn -0.1134 0.0000 0.9935
vn -0.1111 0.0000 0.9938
vn -0.2225 0.0000 0.9749
vn -0.2182 0.0000 0.9759
vn -0.3239 0.0000 0.9461
vn -0.3181 0.0000 0.9481
vn -0.4153 0.0000 0.9097
vn -0.4085 0.0000 0.9127
vn -0.4957 0.0000 0.8685
vn -0.4883 0.0000 0.8726
vn -0.5651 0.0000 0.8250
vn -0.5576 0.0000 0.8301
vn -0.6243 0.0000 0.7812
vn -0.6170 0.0000 0.7870
vn -0.6744 0.0000 0.7383
vn -0.6674 0.0000 0.7447
vn -0.7167 0.0000 0.6973
vn -0.7101 0.0000 0.7041
vn -0.7524 0.0000 0.6587
vn -0.7462 0.0000 0.6657
usemtl Material.001
s 1
f 27/1/1 2/2/2 4/3/2 28/4/3
f 1/5/4 5/6/5 50/7/6 3/8/4
f 5/6/5 6/9/7 49/10/8 50/7/6
f 6/9/7 7/11/9 48/12/10 49/10/8
f 7/11/9 8/13/11 47/14/12 48/12/10
f 8/13/11 9/15/13 46/16/14 47/14/12
f 9/15/13 10/17/15 45/18/16 46/16/14
f 10/17/15 11/19/17 44/20/18 45/18/16
f 11/19/17 12/21/19 43/22/20 44/20/18
f 12/21/19 13/23/21 42/24/22 43/22/20
f 13/23/21 14/25/23 41/26/24 42/24/22
f 14/25/23 15/27/25 40/28/26 41/26/24
f 15/27/25 16/29/27 39/30/27 40/28/26
f 16/29/27 17/31/28 38/32/29 39/30/27
f 17/31/28 18/33/30 37/34/31 38/32/29
f 18/33/30 19/35/32 36/36/33 37/34/31
f 19/35/32 20/37/34 35/38/35 36/36/33
f 20/37/34 21/39/36 34/40/37 35/38/35
f 21/39/36 22/41/38 33/42/39 34/40/37
f 22/41/38 23/43/40 32/44/41 33/42/39
f 23/43/40 24/45/42 31/46/43 32/44/41
f 24/45/42 25/47/44 30/48/45 31/46/43
f 25/47/44 26/49/46 29/50/47 30/48/45
f 26/49/46 27/1/1 28/4/3 29/50/47
